<?xml version="1.0" standalone="no"?>
<!DOCTYPE svg PUBLIC "-//W3C//DTD SVG 20010904//EN"
 "http://www.w3.org/TR/2001/REC-SVG-20010904/DTD/svg10.dtd">
 <svg version="1.0" xmlns="http://www.w3.org/2000/svg"
 width="929.000000pt" height="197.000000pt" viewBox="0 0 929.000000 197.000000"
 preserveAspectRatio="xMidYMid meet">

<g transform="translate(0.000000,197.000000) scale(0.100000,-0.100000)"
fill="#000000" stroke="none">
<path fill="rgb(237,28,36)" d="M6441 1768 c-30 -6 -59 -14 -65 -19 -50 -42 -61 -49 -78 -49 -10 0
-22 -8 -25 -17 -4 -10 -19 -30 -34 -45 -15 -15 -30 -43 -33 -62 -4 -19 -11
-36 -16 -38 -5 -2 -14 -27 -20 -57 -20 -107 -8 -235 26 -268 8 -8 14 -26 14
-41 0 -27 65 -102 88 -102 5 0 12 -7 16 -15 3 -8 17 -15 31 -15 14 0 25 -6 25
-13 0 -8 19 -19 43 -26 63 -18 120 -43 137 -61 8 -9 22 -19 32 -23 9 -3 22
-18 30 -34 15 -31 41 -37 46 -10 2 10 14 29 28 42 13 13 24 36 24 50 0 14 7
28 15 31 8 4 15 12 15 20 0 7 9 28 20 46 27 44 25 54 -10 70 -16 7 -30 16 -30
20 0 5 -7 8 -15 8 -8 0 -15 5 -15 10 0 6 -7 10 -15 10 -8 0 -15 4 -15 9 0 5
-22 15 -50 22 -27 7 -50 18 -50 25 0 7 -10 16 -22 20 -40 12 -88 49 -88 67 0
9 -5 17 -11 17 -8 0 -10 21 -7 65 4 59 7 69 37 95 22 21 43 30 65 30 38 0 96
-18 96 -30 0 -4 11 -11 25 -14 13 -3 35 -18 49 -32 23 -26 46 -26 46 -1 0 16
55 77 69 77 6 0 18 17 28 38 9 20 27 45 38 54 20 16 20 17 -6 26 -15 6 -29 20
-32 31 -3 15 -13 21 -31 21 -15 0 -29 6 -32 14 -3 8 -17 17 -32 21 -15 4 -30
11 -33 16 -7 12 -117 29 -179 28 -25 -1 -69 -6 -99 -11z"/>
<path  fill="rgb(5,42,109)" d="M5160 1745 c-135 -42 -207 -201 -150 -333 30 -69 71 -103 165 -137
90 -33 145 -78 145 -120 0 -56 -48 -105 -104 -105 -24 0 -102 46 -124 73 -12
14 -20 8 -75 -55 l-61 -71 39 -33 c131 -112 290 -121 413 -25 68 54 102 124
102 210 0 118 -59 194 -192 248 -98 40 -140 77 -140 126 0 47 33 87 71 87 14
0 50 -13 78 -29 l53 -29 55 61 55 62 -27 23 c-38 30 -144 62 -207 61 -28 0
-71 -7 -96 -14z"/>
<path  fill="rgb(237,28,36)" d="M7184 1738 c-4 -13 -15 -29 -25 -36 -11 -7 -19 -20 -19 -27 0 -8 -7
-24 -17 -34 -9 -11 -23 -39 -31 -63 -8 -23 -20 -47 -27 -53 -6 -5 -23 -36 -36
-67 -14 -34 -30 -58 -39 -58 -10 0 -21 -18 -29 -47 -8 -27 -19 -53 -26 -58 -7
-6 -23 -33 -36 -60 -13 -28 -29 -56 -36 -63 -7 -7 -18 -31 -24 -52 -7 -22 -16
-40 -21 -40 -4 0 -8 -7 -8 -15 0 -8 -4 -15 -9 -15 -5 0 -19 -20 -30 -44 -12
-24 -31 -54 -41 -66 -11 -13 -20 -33 -20 -45 0 -13 -7 -28 -15 -35 -8 -7 -15
-19 -15 -26 0 -8 -4 -14 -10 -14 -5 0 -10 -7 -10 -15 0 -7 -6 -18 -14 -22 -7
-4 -23 -29 -35 -55 -12 -27 -26 -48 -31 -48 -6 0 -10 -6 -10 -14 0 -18 -22
-26 -70 -26 -48 0 -70 8 -70 26 0 8 -10 14 -26 14 -23 0 -84 52 -84 72 0 18
-43 19 -58 1 -29 -33 -62 -82 -62 -93 0 -5 -3 -10 -7 -10 -5 0 -21 -20 -38
-45 -16 -24 -37 -45 -45 -45 -9 -1 -6 -5 8 -10 12 -5 22 -15 22 -22 0 -15 27
-41 53 -51 9 -3 17 -13 17 -20 0 -8 20 -22 45 -33 25 -10 45 -21 45 -25 0 -4
17 -13 38 -20 20 -6 40 -17 44 -23 11 -16 220 -15 225 2 3 6 10 12 16 12 32 0
87 23 87 35 0 8 6 15 13 15 8 0 31 17 53 38 21 21 47 41 57 45 9 3 17 13 17
21 0 8 6 21 13 28 15 15 57 100 57 115 0 6 6 13 14 16 7 3 16 18 20 34 11 48
28 83 40 83 11 1 37 51 51 98 3 12 12 22 19 22 8 0 18 24 26 60 7 33 17 60 21
60 5 0 9 7 9 15 0 8 4 15 9 15 5 0 14 14 20 30 5 17 15 30 20 30 6 0 11 4 11
10 0 5 15 43 34 83 18 40 36 82 40 95 4 12 12 22 17 22 5 0 14 12 20 27 16 44
42 98 49 103 4 3 20 34 36 70 16 36 37 74 47 85 10 11 21 31 24 44 3 14 12 36
19 50 8 14 14 29 14 34 0 4 -65 7 -144 7 -141 0 -145 -1 -152 -22z m-534 -988
c0 -5 -4 -10 -10 -10 -5 0 -10 5 -10 10 0 6 5 10 10 10 6 0 10 -4 10 -10z"/>
<path fill="rgb(5,42,109)" d="M200 1650 l0 -90 95 0 95 0 0 -335 0 -335 95 0 95 0 0 335 0 335 95
0 95 0 0 90 0 90 -285 0 -285 0 0 -90z"/>
<path fill="rgb(5,42,109)" d="M1187 1723 c-3 -10 -79 -201 -170 -425 l-165 -408 92 0 91 0 34 85
34 85 165 -2 165 -3 35 -82 35 -83 88 0 c49 0 89 3 89 8 0 4 -77 195 -172 425
l-172 417 -72 0 c-60 0 -73 -3 -77 -17z m136 -398 l45 -110 -96 -3 c-52 -1
-97 -1 -100 2 -2 3 12 47 33 98 20 51 41 104 46 117 13 33 20 23 72 -104z"/>
<path fill="rgb(5,42,109)" d="M1820 1315 l0 -425 215 0 215 0 0 90 0 90 -125 0 -125 0 0 335 0 335
-90 0 -90 0 0 -425z"/>
<path fill="rgb(5,42,109)" d="M2390 1315 l0 -425 215 0 215 0 0 90 0 90 -125 0 -125 0 0 335 0 335
-90 0 -90 0 0 -425z"/>
<path fill="rgb(5,42,109)" d="M2960 1315 l0 -425 240 0 240 0 0 90 0 90 -150 0 -150 0 0 80 0 80
150 0 150 0 0 90 0 90 -150 0 -150 0 0 75 0 75 150 0 150 0 0 90 0 90 -240 0
-240 0 0 -425z"/>
<path fill="rgb(5,42,109)" d="M3600 1316 l0 -426 90 0 90 0 0 166 c0 125 3 165 12 162 7 -3 62 -77
122 -166 l110 -162 104 0 c80 0 102 3 96 13 -4 6 -58 87 -121 178 l-113 167
30 12 c41 17 94 78 115 133 13 33 16 66 13 121 -5 98 -36 148 -123 191 -59 30
-63 30 -242 33 l-183 4 0 -426z m307 257 c21 -9 41 -30 51 -50 14 -30 15 -38
2 -76 -18 -51 -62 -77 -132 -77 l-48 0 0 110 0 110 46 0 c25 0 62 -7 81 -17z"/>
<path fill="rgb(5,42,109)" d="M4380 1315 l0 -425 240 0 240 0 0 90 0 90 -150 0 -150 0 0 80 0 80
150 0 150 0 0 90 0 90 -150 0 -150 0 0 75 0 75 150 0 150 0 0 90 0 90 -240 0
-240 0 0 -425z"/>
<path fill="rgb(5,42,109)" d="M8157 1173 c-17 -24 -23 -39 -16 -42 11 -3 38 24 60 62 20 34 -17 18
-44 -20z"/>
<path fill="rgb(5,42,109)" d="M7447 1183 c-4 -3 -7 -67 -7 -140 0 -74 -5 -143 -10 -154 -7 -12 -21
-19 -41 -19 -20 0 -29 -4 -26 -12 7 -22 60 -11 85 17 21 24 22 35 22 171 0
132 -4 156 -23 137z"/>
<path fill="rgb(5,42,109)" d="M7559 1179 c-11 -6 -11 -11 -2 -20 12 -12 43 -6 43 10 0 14 -25 20
-41 10z"/>
<path fill="rgb(5,42,109)" d="M7733 1085 c-18 -8 -33 -10 -33 -5 0 6 -7 10 -15 10 -12 0 -15 -20
-15 -120 0 -100 3 -120 15 -120 12 0 15 17 15 90 0 83 2 93 25 115 29 30 49
31 75 5 17 -17 20 -33 20 -115 0 -78 3 -95 15 -95 12 0 15 16 15 80 0 78 17
140 39 140 5 0 16 3 24 6 9 3 25 -4 36 -15 18 -18 21 -33 21 -116 0 -80 2 -95
16 -95 24 0 17 202 -8 226 -22 23 -93 22 -118 -1 -18 -16 -22 -17 -37 -3 -28
24 -55 28 -90 13z"/>
<path fill="rgb(5,42,109)" d="M8135 1093 c-102 -25 -108 -215 -8 -242 40 -11 106 0 119 20 11 18
-2 20 -41 3 -31 -13 -43 -13 -68 -3 -26 11 -57 58 -57 89 0 6 35 10 90 10 90
0 90 0 90 25 0 41 -27 82 -61 94 -18 6 -35 10 -38 10 -3 -1 -15 -3 -26 -6z
m70 -38 c14 -13 25 -33 25 -45 0 -18 -6 -20 -74 -20 l-75 0 11 30 c10 29 48
59 76 60 7 0 24 -11 37 -25z"/>
<path fill="rgb(5,42,109)" d="M8385 1084 c-19 -10 -31 -11 -33 -5 -2 6 -10 11 -18 11 -11 0 -14
-23 -14 -120 0 -100 3 -120 15 -120 12 0 15 16 15 86 0 81 1 87 29 115 35 34
54 36 81 9 17 -17 20 -33 20 -115 0 -78 3 -95 15 -95 12 0 15 17 15 96 0 108
-7 127 -51 143 -40 14 -38 14 -74 -5z"/>
<path fill="rgb(5,42,109)" d="M8655 1093 c-102 -25 -108 -215 -8 -242 40 -11 106 0 119 20 11 18
-2 20 -41 3 -31 -13 -43 -13 -68 -3 -26 11 -57 58 -57 89 0 6 35 10 90 10 90
0 90 0 90 25 0 41 -27 82 -61 94 -18 6 -35 10 -38 10 -3 -1 -15 -3 -26 -6z
m70 -38 c14 -13 25 -33 25 -45 0 -18 -6 -20 -74 -20 l-75 0 11 30 c10 29 48
59 76 60 7 0 24 -11 37 -25z"/>
<path fill="rgb(5,42,109)" d="M7560 970 c0 -100 3 -120 15 -120 13 0 15 20 15 120 0 100 -2 120
-15 120 -12 0 -15 -20 -15 -120z"/>
<path fill="rgb(5,42,109)" d="M8830 1080 c0 -5 32 -10 71 -12 l70 -3 -75 -100 c-42 -55 -76 -103
-76 -107 0 -5 43 -8 95 -8 113 0 129 18 21 22 l-75 3 60 80 c34 44 70 92 81
108 l19 27 -95 0 c-55 0 -96 -4 -96 -10z"/>
<path fill="rgb(5,42,109)" d="M8377 723 c-4 -3 -7 -84 -7 -180 0 -147 2 -173 15 -173 12 0 15 16
15 84 0 69 4 88 20 109 28 35 56 42 85 23 24 -16 25 -21 25 -116 0 -82 3 -100
15 -100 22 0 22 186 0 217 -21 30 -68 38 -106 19 -18 -9 -34 -16 -36 -16 -1 0
-3 32 -3 70 0 64 -6 81 -23 63z"/>
<path fill="rgb(5,42,109)" d="M7425 698 c-31 -17 -45 -39 -45 -73 0 -40 13 -55 82 -99 66 -42 80
-71 53 -112 -16 -25 -21 -26 -77 -21 -66 6 -78 -12 -17 -25 71 -15 139 24 139
80 0 38 -17 60 -78 98 -66 42 -72 49 -72 86 0 40 38 62 95 55 25 -4 45 -3 45
2 0 22 -90 29 -125 9z"/>
<path fill="rgb(5,42,109)" d="M7683 609 c-31 -9 -50 -25 -41 -35 3 -2 22 3 42 11 34 15 40 15 62 0
33 -22 33 -63 -1 -70 -14 -3 -37 -8 -52 -11 -50 -10 -73 -32 -73 -68 0 -57 55
-87 114 -62 20 8 36 11 36 5 0 -5 7 -9 15 -9 24 0 22 190 -2 218 -22 26 -58
34 -100 21z m87 -138 c0 -43 -9 -60 -41 -76 -41 -22 -79 -5 -79 34 0 42 23 56
113 70 4 0 7 -12 7 -28z"/>
<path fill="rgb(5,42,109)" d="M7945 604 c-19 -10 -31 -11 -33 -5 -2 6 -10 11 -18 11 -11 0 -14 -23
-14 -120 0 -100 3 -120 15 -120 12 0 15 16 15 86 0 81 1 87 29 115 35 34 54
36 81 9 17 -17 20 -33 20 -115 0 -78 3 -95 15 -95 12 0 15 17 15 96 0 108 -7
127 -51 143 -40 14 -38 14 -74 -5z"/>
<path fill="rgb(5,42,109)" d="M8213 609 c-58 -17 -95 -98 -73 -162 17 -54 52 -80 105 -80 25 0 51
5 57 11 18 18 4 23 -30 11 -87 -30 -146 93 -81 174 23 30 59 40 93 27 21 -7
26 -6 26 5 0 8 -6 15 -12 15 -7 0 -22 2 -33 4 -11 3 -34 0 -52 -5z"/>
<path fill="rgb(5,42,109)" d="M8703 609 c-62 -18 -94 -93 -71 -164 18 -52 56 -78 113 -78 76 0 124
67 110 153 -6 38 -46 90 -69 90 -6 0 -20 2 -31 4 -11 3 -34 0 -52 -5z m71 -19
c28 -10 56 -57 56 -93 0 -78 -53 -127 -115 -107 -83 27 -83 167 0 201 27 11
30 11 59 -1z"/>
<path fill="rgb(237,28,36)" d="M752 585 c-9 -20 -9 -25 2 -25 8 0 21 11 30 25 16 24 15 25 -2 25
-10 0 -24 -11 -30 -25z"/>
<path fill="rgb(237,28,36)" d="M5210 589 c-18 -32 -2 -36 28 -6 26 26 26 27 5 27 -12 0 -27 -9 -33
-21z"/>
<path fill="rgb(237,28,36)" d="M106 533 c-2 -10 -7 -47 -11 -83 -4 -36 -9 -73 -11 -82 -4 -13 0 -18
14 -18 20 0 32 33 32 90 0 50 14 41 35 -21 12 -35 26 -64 32 -66 5 -2 18 26
28 62 9 36 21 65 25 65 4 0 11 -29 15 -65 6 -56 9 -65 27 -65 16 0 19 5 14 28
-3 15 -8 52 -11 82 -9 81 -14 92 -38 88 -15 -2 -25 -18 -41 -63 l-20 -60 -20
63 c-16 52 -24 62 -42 62 -13 0 -25 -8 -28 -17z"/>
<path fill="rgb(237,28,36)" d="M340 450 l0 -100 55 0 c48 0 55 2 55 20 0 16 -7 20 -35 20 -28 0 -35
4 -35 20 0 16 7 20 35 20 28 0 35 4 35 20 0 16 -7 20 -35 20 -28 0 -35 4 -35
20 0 16 7 20 35 20 28 0 35 4 35 20 0 18 -7 20 -55 20 l-55 0 0 -100z"/>
<path fill="rgb(237,28,36)" d="M538 534 c-34 -18 -48 -43 -48 -86 0 -64 57 -106 125 -94 26 5 35 12
35 27 0 17 -5 18 -40 13 -49 -8 -80 14 -80 56 0 42 31 64 80 56 35 -5 40 -4
40 13 0 32 -65 41 -112 15z"/>
<path fill="rgb(237,28,36)" d="M713 450 c-36 -89 -38 -100 -22 -100 10 0 23 9 29 20 8 15 21 20 50
20 29 0 42 -5 50 -20 6 -11 19 -20 29 -20 17 0 14 11 -23 100 -27 65 -46 100
-56 100 -11 0 -30 -34 -57 -100z m77 -12 c0 -4 -9 -8 -21 -8 -15 0 -19 4 -15
16 3 9 6 21 6 27 1 13 30 -22 30 -35z"/>
<path fill="rgb(237,28,36)" d="M900 450 c0 -93 1 -100 20 -100 17 0 19 8 22 67 l3 67 44 -67 c33
-52 49 -67 67 -67 24 0 24 1 24 100 0 93 -1 100 -20 100 -17 0 -19 -8 -22 -67
l-3 -68 -45 67 c-33 50 -51 68 -67 68 -22 0 -23 -3 -23 -100z"/>
<path fill="rgb(237,28,36)" d="M1120 450 c0 -93 1 -100 20 -100 19 0 20 7 20 100 0 93 -1 100 -20
100 -19 0 -20 -7 -20 -100z"/>
<path fill="rgb(237,28,36)" d="M1248 534 c-34 -18 -48 -43 -48 -86 0 -64 57 -106 125 -94 26 5 35
12 35 27 0 17 -5 18 -40 13 -49 -8 -80 14 -80 56 0 42 31 64 80 56 35 -5 40
-4 40 13 0 32 -65 41 -112 15z"/>
<path fill="rgb(237,28,36)" d="M1423 450 c-36 -89 -38 -100 -22 -100 10 0 23 9 29 20 8 15 21 20 50
20 29 0 42 -5 50 -20 6 -11 19 -20 29 -20 17 0 14 11 -23 100 -27 65 -46 100
-56 100 -11 0 -30 -34 -57 -100z m77 -12 c0 -4 -9 -8 -21 -8 -15 0 -19 4 -15
16 3 9 6 21 6 27 1 13 30 -22 30 -35z"/>
<path fill="rgb(237,28,36)" d="M1890 450 l0 -100 55 0 c48 0 55 2 55 20 0 16 -7 20 -35 20 -28 0
-35 4 -35 20 0 16 7 20 35 20 28 0 35 4 35 20 0 16 -7 20 -35 20 -28 0 -35 4
-35 20 0 16 7 20 35 20 28 0 35 4 35 20 0 18 -7 20 -55 20 l-55 0 0 -100z"/>
<path fill="rgb(237,28,36)" d="M2050 450 l0 -100 45 0 c38 0 45 3 45 20 0 16 -7 20 -30 20 l-30 0 0
80 c0 64 -3 80 -15 80 -12 0 -15 -18 -15 -100z"/>
<path fill="rgb(237,28,36)" d="M2180 450 l0 -100 55 0 c48 0 55 2 55 20 0 16 -7 20 -35 20 -28 0
-35 4 -35 20 0 16 7 20 35 20 28 0 35 4 35 20 0 16 -7 20 -35 20 -28 0 -35 4
-35 20 0 16 7 20 35 20 28 0 35 4 35 20 0 18 -7 20 -55 20 l-55 0 0 -100z"/>
<path fill="rgb(237,28,36)" d="M2378 534 c-34 -18 -48 -43 -48 -86 0 -64 57 -106 125 -94 26 5 35
12 35 27 0 17 -5 18 -40 13 -49 -8 -80 14 -80 56 0 42 31 64 80 56 35 -5 40
-4 40 13 0 32 -65 41 -112 15z"/>
<path fill="rgb(237,28,36)" d="M2510 530 c0 -13 7 -20 20 -20 18 0 20 -7 20 -80 0 -73 2 -80 20 -80
18 0 20 7 20 80 0 79 0 80 25 80 18 0 25 5 25 20 0 18 -7 20 -65 20 -58 0 -65
-2 -65 -20z"/>
<path fill="rgb(237,28,36)" d="M2670 450 c0 -93 1 -100 20 -100 16 0 20 7 20 35 0 44 9 44 39 0 16
-24 31 -35 48 -35 l25 0 -27 36 c-25 33 -26 37 -11 53 21 24 20 74 -2 94 -12
11 -36 17 -65 17 l-47 0 0 -100z m88 48 c15 -15 -3 -38 -29 -38 -14 0 -19 7
-19 25 0 27 26 35 48 13z"/>
<path fill="rgb(237,28,36)" d="M2860 450 c0 -93 1 -100 20 -100 19 0 20 7 20 100 0 93 -1 100 -20
100 -19 0 -20 -7 -20 -100z"/>
<path fill="rgb(237,28,36)" d="M2988 534 c-34 -18 -48 -43 -48 -86 0 -64 57 -106 125 -94 26 5 35
12 35 27 0 17 -5 18 -40 13 -49 -8 -80 14 -80 56 0 42 31 64 80 56 35 -5 40
-4 40 13 0 32 -65 41 -112 15z"/>
<path fill="rgb(237,28,36)" d="M3130 450 c0 -93 1 -100 20 -100 19 0 20 7 20 100 0 93 -1 100 -20
100 -19 0 -20 -7 -20 -100z"/>
<path fill="rgb(237,28,36)" d="M3210 449 l0 -101 55 4 c76 6 105 34 105 99 0 40 -4 51 -31 73 -24
20 -41 26 -80 26 l-49 0 0 -101z m101 51 c14 -8 19 -21 19 -50 0 -42 -18 -60
-59 -60 -19 0 -21 6 -21 60 0 54 2 60 21 60 11 0 29 -5 40 -10z"/>
<path fill="rgb(237,28,36)" d="M3443 450 c-36 -89 -38 -100 -22 -100 10 0 23 9 29 20 8 15 21 20 50
20 29 0 42 -5 50 -20 6 -11 19 -20 29 -20 17 0 14 11 -23 100 -27 65 -46 100
-56 100 -11 0 -30 -34 -57 -100z m77 -12 c0 -4 -9 -8 -21 -8 -15 0 -19 4 -15
16 3 9 6 21 6 27 1 13 30 -22 30 -35z"/>
<path fill="rgb(237,28,36)" d="M3630 449 l0 -101 55 4 c76 6 105 34 105 99 0 40 -4 51 -31 73 -24
20 -41 26 -80 26 l-49 0 0 -101z m101 51 c14 -8 19 -21 19 -50 0 -42 -18 -60
-59 -60 -19 0 -21 6 -21 60 0 54 2 60 21 60 11 0 29 -5 40 -10z"/>
<path fill="rgb(237,28,36)" d="M4140 450 l0 -100 55 0 c48 0 55 2 55 20 0 16 -7 20 -35 20 -28 0
-35 4 -35 20 0 16 7 20 35 20 28 0 35 4 35 20 0 16 -7 20 -35 20 -28 0 -35 4
-35 20 0 16 7 20 35 20 28 0 35 4 35 20 0 18 -7 20 -55 20 l-55 0 0 -100z"/>
<path fill="rgb(237,28,36)" d="M4300 450 l0 -100 45 0 c38 0 45 3 45 20 0 16 -7 20 -30 20 l-30 0 0
80 c0 64 -3 80 -15 80 -12 0 -15 -18 -15 -100z"/>
<path fill="rgb(237,28,36)" d="M4430 450 l0 -100 55 0 c48 0 55 2 55 20 0 16 -7 20 -35 20 -28 0
-35 4 -35 20 0 16 7 20 35 20 28 0 35 4 35 20 0 16 -7 20 -35 20 -28 0 -35 4
-35 20 0 16 7 20 35 20 28 0 35 4 35 20 0 18 -7 20 -55 20 l-55 0 0 -100z"/>
<path fill="rgb(237,28,36)" d="M4628 534 c-34 -18 -48 -43 -48 -86 0 -64 57 -106 125 -94 26 5 35
12 35 27 0 17 -5 18 -40 13 -49 -8 -80 14 -80 56 0 42 31 64 80 56 35 -5 40
-4 40 13 0 32 -65 41 -112 15z"/>
<path fill="rgb(237,28,36)" d="M4760 530 c0 -13 7 -20 20 -20 18 0 20 -7 20 -80 0 -73 2 -80 20 -80
18 0 20 7 20 80 0 79 0 80 25 80 18 0 25 5 25 20 0 18 -7 20 -65 20 -58 0 -65
-2 -65 -20z"/>
<path fill="rgb(237,28,36)" d="M4920 450 c0 -93 1 -100 20 -100 16 0 20 7 20 35 0 44 9 44 39 0 16
-24 31 -35 48 -35 l25 0 -27 36 c-25 33 -26 37 -11 53 21 24 20 74 -2 94 -12
11 -36 17 -65 17 l-47 0 0 -100z m88 48 c15 -15 -3 -38 -29 -38 -14 0 -19 7
-19 25 0 27 26 35 48 13z"/>
<path fill="rgb(237,28,36)" d="M5158 534 c-35 -18 -48 -43 -48 -89 0 -60 64 -106 126 -91 89 23 100
142 17 185 -29 15 -62 13 -95 -5z m94 -41 c22 -20 23 -61 1 -85 -34 -38 -103
-11 -103 40 0 54 62 81 102 45z"/>
<path fill="rgb(237,28,36)" d="M5350 450 c0 -93 1 -100 20 -100 17 0 19 8 22 67 l3 67 44 -67 c33
-52 49 -67 67 -67 24 0 24 1 24 100 0 93 -1 100 -20 100 -17 0 -19 -8 -22 -67
l-3 -68 -45 67 c-33 50 -51 68 -67 68 -22 0 -23 -3 -23 -100z"/>
<path fill="rgb(237,28,36)" d="M5570 450 c0 -93 1 -100 20 -100 19 0 20 7 20 100 0 93 -1 100 -20
100 -19 0 -20 -7 -20 -100z"/>
<path fill="rgb(237,28,36)" d="M5698 534 c-34 -18 -48 -43 -48 -86 0 -64 57 -106 125 -94 26 5 35
12 35 27 0 17 -5 18 -40 13 -49 -8 -80 14 -80 56 0 42 31 64 80 56 35 -5 40
-4 40 13 0 32 -65 41 -112 15z"/>
<path fill="rgb(237,28,36)" d="M5873 450 c-36 -89 -38 -100 -22 -100 10 0 23 9 29 20 8 15 21 20 50
20 29 0 42 -5 50 -20 6 -11 19 -20 29 -20 17 0 14 11 -23 100 -27 65 -46 100
-56 100 -11 0 -30 -34 -57 -100z m77 -12 c0 -4 -9 -8 -21 -8 -15 0 -19 4 -15
16 3 9 6 21 6 27 1 13 30 -22 30 -35z"/>
<path fill="rgb(237,28,36)" d="M3930 440 c0 -17 7 -20 40 -20 33 0 40 3 40 20 0 17 -7 20 -40 20
-33 0 -40 -3 -40 -20z"/>
<path fill="rgb(237,28,36)" d="M1690 420 c0 -17 7 -20 40 -20 33 0 40 3 40 20 0 17 -7 20 -40 20
-33 0 -40 -3 -40 -20z"/>
</g>
</svg>